<?xml version="1.0" encoding="UTF-8" standalone="no"?>
<svg
   xmlns:dc="http://purl.org/dc/elements/1.1/"
   xmlns:cc="http://creativecommons.org/ns#"
   xmlns:rdf="http://www.w3.org/1999/02/22-rdf-syntax-ns#"
   xmlns:svg="http://www.w3.org/2000/svg"
   xmlns="http://www.w3.org/2000/svg"
   id="svg1064"
   version="1.1"
   viewBox="0 0 27.781249 27.781251"
   height="105"
   width="105">
  <defs
     id="defs1058" />
  <metadata
     id="metadata1061">
    <rdf:RDF>
      <cc:Work
         rdf:about="">
        <dc:format>image/svg+xml</dc:format>
        <dc:type
           rdf:resource="http://purl.org/dc/dcmitype/StillImage" />
        <dc:title></dc:title>
      </cc:Work>
    </rdf:RDF>
  </metadata>
  <g
     id="layer1">
    <circle
       r="11.363152"
       cy="153.94725"
       cx="103.16604"
       id="circle1039"
       style="opacity:1;fill:none;fill-opacity:1;stroke:none;stroke-width:0.223157;stroke-opacity:1" />
    <g
       style="font-style:normal;font-variant:normal;font-weight:normal;font-stretch:normal;font-size:2.56595px;line-height:1.25;font-family:'Open Sans';-inkscape-font-specification:'Open Sans';letter-spacing:0.0926042px;stroke-width:0.240557"
       id="text1028"
       transform="translate(-89.374187,-140.03745)"
       aria-label="Curriculam Vitae   Curriculam Vitae   Curriculam Vitae">
      <path
         id="path1275"
         style="font-style:normal;font-variant:normal;font-weight:normal;font-stretch:normal;font-family:'Open Sans';-inkscape-font-specification:'Open Sans';stroke-width:0.240557;fill:#d5f6ec;fill-opacity:1"
         d="m 116.15108,155.09722 q 0.0107,-0.15123 -0.0333,-0.27616 -0.0428,-0.12359 -0.13553,-0.21553 -0.0916,-0.0906 -0.22715,-0.14538 -0.13556,-0.0548 -0.30928,-0.067 -0.22996,-0.0162 -0.40496,0.0431 -0.17383,0.0606 -0.27635,0.19656 -0.10262,0.13721 -0.11776,0.35218 -0.009,0.12248 0.004,0.23137 0.0136,0.11023 0.0376,0.21492 l -0.18497,-0.013 q -0.0305,-0.10262 -0.0402,-0.21384 -0.011,-0.1113 -3.4e-4,-0.26253 0.0196,-0.27871 0.14783,-0.45808 0.12935,-0.17803 0.34717,-0.25688 0.21774,-0.0776 0.50519,-0.0573 0.20747,0.0146 0.37464,0.0842 0.16834,0.0709 0.28548,0.19093 0.11706,0.12129 0.1731,0.28852 0.0572,0.16857 0.0423,0.37979 -0.01,0.13873 -0.0463,0.26552 -0.0366,0.12679 -0.0951,0.22691 l -0.17398,-0.0977 q 0.0462,-0.0847 0.0823,-0.18763 0.0373,-0.10162 0.0458,-0.22285 z" />
      <path
         id="path1277"
         style="font-style:normal;font-variant:normal;font-weight:normal;font-stretch:normal;font-family:'Open Sans';-inkscape-font-specification:'Open Sans';stroke-width:0.240557;fill:#d5f6ec;fill-opacity:1"
         d="m 115.47548,157.27688 -1.3404,-0.29825 0.037,-0.16633 0.19488,0.0126 0.002,-0.011 q -0.0605,-0.0571 -0.0935,-0.13375 -0.033,-0.0767 -0.0377,-0.16499 -0.006,-0.0874 0.0145,-0.18033 0.0354,-0.15899 0.11068,-0.25518 0.0753,-0.0962 0.19519,-0.12729 0.11959,-0.0299 0.28837,0.008 l 0.87811,0.19539 -0.0457,0.20546 -0.86343,-0.19212 q -0.16755,-0.0373 -0.26759,0.02 -0.0988,0.0576 -0.13337,0.21292 -0.0332,0.1492 0.003,0.24977 0.0364,0.1018 0.13653,0.16516 0.10137,0.0636 0.26036,0.099 l 0.70566,0.15701 z" />
      <path
         id="path1279"
         style="font-style:normal;font-variant:normal;font-weight:normal;font-stretch:normal;font-family:'Open Sans';-inkscape-font-specification:'Open Sans';stroke-width:0.240557;fill:#d5f6ec;fill-opacity:1"
         d="m 115.07817,158.54454 q -0.0139,0.0389 -0.0338,0.0797 -0.0187,0.0412 -0.0376,0.0717 l -0.17283,-0.0897 q 0.0196,-0.0289 0.0383,-0.0661 0.0186,-0.0373 0.0309,-0.0715 0.0278,-0.0779 0.0209,-0.15886 -0.006,-0.0794 -0.0466,-0.15239 -0.0392,-0.0726 -0.11129,-0.13159 -0.0709,-0.0586 -0.17115,-0.0944 l -0.69371,-0.24799 0.0704,-0.19702 1.29305,0.46224 -0.0582,0.16281 -0.24591,-0.064 -0.003,0.008 q 0.0576,0.0658 0.0964,0.14355 0.0399,0.0781 0.0487,0.16512 0.008,0.0882 -0.0245,0.18018 z" />
      <path
         id="path1281"
         style="font-style:normal;font-variant:normal;font-weight:normal;font-stretch:normal;font-family:'Open Sans';-inkscape-font-specification:'Open Sans';stroke-width:0.240557;fill:#d5f6ec;fill-opacity:1"
         d="m 114.55699,159.71478 q -0.0178,0.0373 -0.0417,0.0759 -0.0228,0.0391 -0.0447,0.0676 l -0.16291,-0.10669 q 0.0225,-0.0268 0.0448,-0.0619 0.0223,-0.0352 0.0379,-0.068 0.0355,-0.0747 0.0368,-0.15595 0.002,-0.0796 -0.031,-0.15631 -0.0317,-0.0762 -0.0975,-0.14214 -0.0646,-0.0654 -0.16075,-0.11121 l -0.6652,-0.31664 0.0899,-0.18892 1.23988,0.59019 -0.0743,0.15612 -0.23821,-0.0884 -0.004,0.008 q 0.0507,0.0713 0.0814,0.15254 0.0318,0.0818 0.0319,0.16919 -5.3e-4,0.0886 -0.0425,0.1768 z" />
      <path
         id="path1283"
         style="font-style:normal;font-variant:normal;font-weight:normal;font-stretch:normal;font-family:'Open Sans';-inkscape-font-specification:'Open Sans';stroke-width:0.240557;fill:#d5f6ec;fill-opacity:1"
         d="m 114.12765,160.43673 -1.18673,-0.69087 0.10464,-0.17974 1.18673,0.69087 z m 0.495,0.17074 q -0.0258,0.0444 -0.0734,0.0588 -0.0471,0.0161 -0.1077,-0.0192 -0.0596,-0.0347 -0.0699,-0.0842 -0.011,-0.0484 0.0149,-0.0928 0.0271,-0.0466 0.0746,-0.0609 0.0469,-0.0133 0.10644,0.0214 0.0606,0.0353 0.0711,0.082 0.011,0.0484 -0.0162,0.095 z" />
      <path
         id="path1285"
         style="font-style:normal;font-variant:normal;font-weight:normal;font-stretch:normal;font-family:'Open Sans';-inkscape-font-specification:'Open Sans';stroke-width:0.240557;fill:#d5f6ec;fill-opacity:1"
         d="m 112.32516,160.63341 q 0.1074,-0.15117 0.2517,-0.22232 0.1443,-0.0711 0.31769,-0.0448 0.17339,0.0264 0.36745,0.16424 0.20325,0.1444 0.28405,0.30324 0.0811,0.16059 0.0585,0.32436 -0.0226,0.16376 -0.13072,0.31595 -0.0595,0.0838 -0.13202,0.14904 -0.0722,0.067 -0.13331,0.0989 l -0.10568,-0.15193 q 0.0567,-0.0366 0.12094,-0.0924 0.0635,-0.0548 0.10487,-0.113 0.0827,-0.11643 0.0878,-0.22961 0.004,-0.11216 -0.0651,-0.21991 -0.0702,-0.10673 -0.21215,-0.2076 -0.13584,-0.0965 -0.25798,-0.12795 -0.12286,-0.0304 -0.22617,0.007 -0.10302,0.039 -0.18212,0.15033 -0.0631,0.0889 -0.0955,0.17342 -0.0314,0.0853 -0.0472,0.16164 l -0.15116,-0.1074 q 0.0113,-0.0765 0.0453,-0.15683 0.0333,-0.0793 0.10078,-0.1743 z" />
      <path
         id="path1287"
         style="font-style:normal;font-variant:normal;font-weight:normal;font-stretch:normal;font-family:'Open Sans';-inkscape-font-specification:'Open Sans';stroke-width:0.240557;fill:#d5f6ec;fill-opacity:1"
         d="m 112.11426,163.02816 -1.00613,-0.93453 0.11596,-0.12485 0.16184,0.10928 0.008,-0.008 q -0.0233,-0.0798 -0.0131,-0.16264 0.0102,-0.0828 0.0508,-0.16145 0.0388,-0.0786 0.10357,-0.14833 0.11085,-0.11934 0.22444,-0.16431 0.11359,-0.045 0.23275,-0.0112 0.1183,0.0346 0.24498,0.15231 l 0.65913,0.61222 -0.14325,0.15422 -0.64811,-0.60198 q -0.12577,-0.11682 -0.24106,-0.11788 -0.11437,-2.2e-4 -0.22266,0.11637 -0.10402,0.112 -0.12319,0.21731 -0.02,0.10624 0.0344,0.2115 0.0553,0.10612 0.17468,0.21697 l 0.52968,0.49199 z" />
      <path
         id="path1289"
         style="font-style:normal;font-variant:normal;font-weight:normal;font-stretch:normal;font-family:'Open Sans';-inkscape-font-specification:'Open Sans';stroke-width:0.240557;fill:#d5f6ec;fill-opacity:1"
         d="m 110.55091,162.58442 0.15771,-0.1375 1.28118,1.46942 -0.15771,0.1375 z" />
      <path
         id="path1291"
         style="font-style:normal;font-variant:normal;font-weight:normal;font-stretch:normal;font-family:'Open Sans';-inkscape-font-specification:'Open Sans';stroke-width:0.240557;fill:#d5f6ec;fill-opacity:1"
         d="m 110.53659,164.36301 q -0.20014,0.14229 -0.36104,0.1214 -0.16089,-0.0209 -0.30101,-0.21797 l -0.54086,-0.76074 0.12356,-0.0879 0.15028,0.1422 0.008,-0.006 q 0.003,-0.0947 0.0247,-0.17283 0.022,-0.0771 0.0742,-0.1465 0.0519,-0.0676 0.14887,-0.13658 0.10211,-0.0726 0.20717,-0.0935 0.10403,-0.0202 0.20153,0.0197 0.0965,0.0406 0.17561,0.15186 0.11906,0.16747 0.0502,0.3517 -0.0689,0.18424 -0.33468,0.38552 l -0.18718,0.14538 0.0486,0.0684 q 0.10309,0.145 0.20676,0.15892 0.10367,0.0139 0.21702,-0.0667 0.0878,-0.0624 0.14931,-0.14459 0.0615,-0.0822 0.1083,-0.1677 l 0.14355,0.0916 q -0.048,0.0925 -0.1264,0.18979 -0.0784,0.0973 -0.18667,0.17422 z m -0.64341,-0.42496 0.16545,-0.12839 q 0.20352,-0.15699 0.24646,-0.27822 0.0429,-0.12123 -0.0355,-0.23152 -0.0682,-0.096 -0.15912,-0.10055 -0.0909,-0.005 -0.18686,0.0637 -0.14908,0.10599 -0.18524,0.25622 -0.0362,0.15023 0.0815,0.31565 z" />
      <path
         id="path1293"
         style="font-style:normal;font-variant:normal;font-weight:normal;font-stretch:normal;font-family:'Open Sans';-inkscape-font-specification:'Open Sans';stroke-width:0.240557;fill:#d5f6ec;fill-opacity:1"
         d="m 108.15117,165.70948 q -0.20495,0.0971 -0.36007,0.0388 -0.15459,-0.0571 -0.26668,-0.29376 l -0.38506,-0.813 0.1857,-0.088 0.38078,0.80395 q 0.0713,0.1506 0.17239,0.19423 0.10048,0.0453 0.22843,-0.0153 0.18004,-0.0853 0.21223,-0.22805 0.0322,-0.14279 -0.0638,-0.34548 l -0.32875,-0.69411 0.18683,-0.0885 0.38077,0.80395 q 0.0477,0.10078 0.10881,0.15364 0.06,0.0534 0.13326,0.0589 0.0727,0.007 0.15989,-0.0342 0.12342,-0.0584 0.17402,-0.1448 0.0506,-0.0863 0.0368,-0.20322 -0.0144,-0.11519 -0.0835,-0.26126 l -0.31105,-0.65675 0.18797,-0.089 0.58778,1.24103 -0.15173,0.0719 -0.11144,-0.1621 -0.0102,0.005 q -0.007,0.0822 -0.0425,0.15321 -0.0357,0.071 -0.0952,0.12688 -0.0595,0.0559 -0.13874,0.0934 -0.14154,0.067 -0.26186,0.0589 -0.12091,-0.007 -0.21489,-0.0937 l -0.0102,0.005 q -0.0102,0.13653 -0.092,0.23903 -0.0812,0.10363 -0.20805,0.1637 z" />
      <path
         id="path1295"
         style="font-style:normal;font-variant:normal;font-weight:normal;font-stretch:normal;font-family:'Open Sans';-inkscape-font-specification:'Open Sans';stroke-width:0.240557;fill:#d5f6ec;fill-opacity:1"
         d="m 104.9706,167.04205 0.29232,-1.92419 0.21023,-0.0413 0.99855,1.67058 -0.21883,0.043 -0.65305,-1.10131 q -0.0398,-0.0662 -0.0723,-0.12753 -0.0337,-0.0611 -0.0615,-0.11815 -0.0278,-0.0571 -0.0512,-0.11124 -0.001,0.059 -0.005,0.12235 -0.004,0.0646 -0.012,0.13388 -0.008,0.0705 -0.0194,0.1481 l -0.18613,1.26235 z" />
      <path
         id="path1297"
         style="font-style:normal;font-variant:normal;font-weight:normal;font-stretch:normal;font-family:'Open Sans';-inkscape-font-specification:'Open Sans';stroke-width:0.240557;fill:#d5f6ec;fill-opacity:1"
         d="m 104.22086,166.64088 -0.1235,-1.36762 0.20714,-0.0187 0.1235,1.36762 z m 0.14727,0.50248 q -0.0512,0.005 -0.0904,-0.0258 -0.0404,-0.0291 -0.0467,-0.0989 -0.006,-0.0686 0.0282,-0.1057 0.0332,-0.037 0.0843,-0.0416 0.0537,-0.005 0.0929,0.0256 0.038,0.0305 0.0442,0.0992 0.006,0.0699 -0.0257,0.10547 -0.0331,0.037 -0.0868,0.0418 z" />
      <path
         id="path1299"
         style="font-style:normal;font-variant:normal;font-weight:normal;font-stretch:normal;font-family:'Open Sans';-inkscape-font-specification:'Open Sans';stroke-width:0.240557;fill:#d5f6ec;fill-opacity:1"
         d="m 103.12575,165.45745 q -0.0514,7.2e-4 -0.10511,0.0102 -0.0537,0.01 -0.0874,0.0225 l -0.002,-0.16161 q 0.0361,-0.0168 0.10109,-0.029 0.0637,-0.0122 0.12512,-0.013 0.10899,-0.002 0.19847,0.0348 0.0895,0.0376 0.14464,0.12829 0.0539,0.0907 0.0562,0.25233 l 0.0114,0.81431 0.19544,-0.003 0.001,0.10147 -0.19555,0.0842 -0.0785,0.29932 -0.12528,0.002 -0.004,-0.3182 -0.40215,0.006 -0.002,-0.16286 0.40214,-0.006 -0.0113,-0.80805 q -0.002,-0.12904 -0.0616,-0.1921 -0.061,-0.063 -0.16,-0.0617 z" />
      <path
         id="path1301"
         style="font-style:normal;font-variant:normal;font-weight:normal;font-stretch:normal;font-family:'Open Sans';-inkscape-font-specification:'Open Sans';stroke-width:0.240557;fill:#d5f6ec;fill-opacity:1"
         d="m 101.91137,166.64515 q -0.24443,-0.0236 -0.35234,-0.14471 -0.1079,-0.12117 -0.0847,-0.36186 l 0.0895,-0.92912 0.15091,0.0145 0.0204,0.20588 0.01,9.6e-4 q 0.0646,-0.0693 0.13186,-0.11442 0.0672,-0.0439 0.15199,-0.0621 0.0835,-0.0171 0.20195,-0.006 0.12471,0.012 0.21778,0.065 0.0918,0.0529 0.13942,0.14685 0.0463,0.0938 0.0332,0.22977 -0.0197,0.20453 -0.1924,0.29866 -0.1727,0.0941 -0.5054,0.0721 l -0.23667,-0.0127 -0.008,0.0836 q -0.0171,0.17709 0.0522,0.25551 0.0692,0.0784 0.20766,0.0917 0.10725,0.0103 0.20753,-0.0115 0.10028,-0.0218 0.19166,-0.0558 l 0.0485,0.16326 q -0.0968,0.0385 -0.21982,0.0606 -0.12297,0.0221 -0.25517,0.009 z m -0.2079,-0.74253 0.20912,0.0113 q 0.25662,0.0147 0.36847,-0.0488 0.11184,-0.0635 0.12482,-0.19818 0.0113,-0.11723 -0.0544,-0.1802 -0.0657,-0.063 -0.18291,-0.0743 -0.18208,-0.0175 -0.30779,0.0723 -0.12572,0.0898 -0.14518,0.29188 z" />
      <path
         id="path1303"
         style="font-style:normal;font-variant:normal;font-weight:normal;font-stretch:normal;font-family:'Open Sans';-inkscape-font-specification:'Open Sans';stroke-width:0.240557;fill:#d5f6ec;fill-opacity:1"
         d="m 100.21151,166.3646 q -0.17076,-0.0401 -0.274959,-0.14441 -0.104199,-0.10428 -0.136743,-0.25607 -0.03283,-0.15058 0.0099,-0.33231 l 0.02952,-0.12563 0.923298,0.21696 q 0.0517,-0.23626 -0.0328,-0.3861 -0.0845,-0.14984 -0.29061,-0.19828 -0.12684,-0.0298 -0.22986,-0.0296 -0.10302,2.4e-4 -0.218521,0.0207 l 0.04184,-0.17808 q 0.11184,-0.0213 0.21673,-0.0186 0.10366,0.002 0.23905,0.0343 0.19271,0.0453 0.31829,0.15716 0.12407,0.11281 0.16753,0.2839 0.0435,0.17109 -0.008,0.39186 -0.0507,0.21588 -0.15966,0.35631 -0.11044,0.14136 -0.26223,0.19579 -0.15301,0.0541 -0.3323,0.012 z m 0.0414,-0.16531 q 0.16222,0.0381 0.28351,-0.0453 0.12129,-0.0835 0.1843,-0.26944 l -0.70742,-0.16623 q -0.02687,0.11981 -0.0115,0.21867 0.0139,0.0998 0.0753,0.16699 0.0611,0.0684 0.17579,0.0954 z" />
      <path
         id="path1305"
         style="font-style:normal;font-variant:normal;font-weight:normal;font-stretch:normal;font-family:'Open Sans';-inkscape-font-specification:'Open Sans';stroke-width:0.240557;fill:#d5f6ec;fill-opacity:1"
         d="m 95.889509,164.76386 q 0.12716,0.0825 0.257749,0.10458 0.128857,0.0224 0.25421,-0.0142 0.123621,-0.0363 0.237175,-0.12836 0.113554,-0.0921 0.208377,-0.23817 0.12552,-0.19337 0.158394,-0.37517 0.03114,-0.18144 -0.03818,-0.33698 -0.07037,-0.15622 -0.25113,-0.27355 -0.102989,-0.0669 -0.204282,-0.10871 -0.103026,-0.0415 -0.206255,-0.0711 l 0.100962,-0.15554 q 0.104538,0.023 0.206568,0.0684 0.102713,0.0443 0.229873,0.12681 0.234353,0.15212 0.329229,0.35113 0.09314,0.19938 0.05667,0.42815 -0.03752,0.22808 -0.194421,0.46979 -0.113241,0.17445 -0.255041,0.28705 -0.143533,0.11296 -0.305281,0.15734 -0.162799,0.0437 -0.336255,0.0118 -0.175188,-0.0316 -0.352792,-0.14685 -0.116651,-0.0757 -0.209887,-0.16911 -0.09323,-0.0934 -0.152492,-0.19309 l 0.169695,-0.10494 q 0.05173,0.0814 0.124321,0.16285 0.07085,0.0818 0.172791,0.14801 z" />
      <path
         id="path1307"
         style="font-style:normal;font-variant:normal;font-weight:normal;font-stretch:normal;font-family:'Open Sans';-inkscape-font-specification:'Open Sans';stroke-width:0.240557;fill:#d5f6ec;fill-opacity:1"
         d="m 94.309885,163.11798 0.909414,-1.02889 0.127671,0.11285 -0.105252,0.16448 0.0084,0.007 q 0.07921,-0.0253 0.162268,-0.0171 0.08305,0.008 0.162655,0.0468 0.07949,0.0368 0.150838,0.0999 0.122039,0.10787 0.1698,0.22031 0.04776,0.11245 0.01699,0.2324 -0.03171,0.11912 -0.14622,0.24867 l -0.595765,0.67403 -0.157712,-0.1394 0.585808,-0.66276 q 0.113677,-0.12861 0.111897,-0.24389 -0.0026,-0.11435 -0.121832,-0.21973 -0.114529,-0.10123 -0.220289,-0.11779 -0.106698,-0.0174 -0.210587,0.0396 -0.104719,0.0579 -0.212587,0.17998 l -0.47877,0.54166 z" />
      <path
         id="path1309"
         style="font-style:normal;font-variant:normal;font-weight:normal;font-stretch:normal;font-family:'Open Sans';-inkscape-font-specification:'Open Sans';stroke-width:0.240557;fill:#d5f6ec;fill-opacity:1"
         d="m 93.392878,162.15985 q -0.02739,-0.031 -0.05352,-0.0681 -0.02707,-0.0363 -0.04468,-0.0675 l 0.161954,-0.10813 q 0.01584,0.0311 0.03948,0.0654 0.02364,0.0343 0.04771,0.0615 0.05479,0.0619 0.129101,0.0949 0.07255,0.0329 0.155993,0.0326 0.08251,6.1e-4 0.168954,-0.034 0.08551,-0.0338 0.165275,-0.10438 l 0.551813,-0.4881 0.138627,0.15673 -1.02855,0.90979 -0.114554,-0.12951 0.174627,-0.18457 -0.0058,-0.007 q -0.08547,0.0187 -0.172237,0.0152 -0.08771,-0.003 -0.168156,-0.0369 -0.08128,-0.0352 -0.146029,-0.10836 z" />
      <path
         id="path1311"
         style="font-style:normal;font-variant:normal;font-weight:normal;font-stretch:normal;font-family:'Open Sans';-inkscape-font-specification:'Open Sans';stroke-width:0.240557;fill:#d5f6ec;fill-opacity:1"
         d="m 92.619152,161.14072 q -0.02417,-0.0335 -0.04647,-0.0731 -0.02332,-0.0388 -0.03772,-0.0716 l 0.171928,-0.0914 q 0.01266,0.0326 0.03276,0.0691 0.0201,0.0365 0.04134,0.066 0.04834,0.0671 0.118996,0.10729 0.06891,0.0399 0.151962,0.048 0.08204,0.009 0.171505,-0.017 0.08845,-0.0251 0.174858,-0.0874 l 0.59773,-0.43065 0.12231,0.16976 -1.114136,0.80271 -0.101071,-0.14029 0.19216,-0.16624 -0.0051,-0.007 q -0.08691,0.0101 -0.172893,-0.002 -0.087,-0.0114 -0.163636,-0.0535 -0.07737,-0.0431 -0.134497,-0.12238 z" />
      <path
         id="path1313"
         style="font-style:normal;font-variant:normal;font-weight:normal;font-stretch:normal;font-family:'Open Sans';-inkscape-font-specification:'Open Sans';stroke-width:0.240557;fill:#d5f6ec;fill-opacity:1"
         d="m 92.193028,160.41748 1.176535,-0.7081 0.107248,0.1782 -1.176534,0.7081 z m -0.387795,0.35184 q -0.02649,-0.044 -0.01624,-0.0926 0.0085,-0.049 0.06864,-0.0852 0.05904,-0.0355 0.107408,-0.0208 0.04772,0.0137 0.07421,0.0577 0.02778,0.0462 0.01753,0.0947 -0.01089,0.0475 -0.06994,0.083 -0.06012,0.0362 -0.106115,0.0229 -0.04772,-0.0137 -0.0755,-0.0599 z" />
      <path
         id="path1315"
         style="font-style:normal;font-variant:normal;font-weight:normal;font-stretch:normal;font-family:'Open Sans';-inkscape-font-specification:'Open Sans';stroke-width:0.240557;fill:#d5f6ec;fill-opacity:1"
         d="m 92.887745,158.74252 q 0.08081,0.1669 0.07372,0.32763 -0.0071,0.16074 -0.113647,0.30003 -0.106559,0.1393 -0.320816,0.24304 -0.224406,0.10866 -0.402529,0.10303 -0.179797,-0.006 -0.312469,-0.10484 -0.132672,-0.0986 -0.214029,-0.26665 -0.04477,-0.0925 -0.0671,-0.18746 -0.024,-0.0956 -0.02256,-0.16447 l 0.184047,-0.0195 q 0.0047,0.0673 0.02274,0.15046 0.01745,0.082 0.04857,0.14632 0.06225,0.12855 0.158999,0.1875 0.09621,0.0578 0.224084,0.0488 0.127332,-0.0102 0.284077,-0.0861 0.14998,-0.0726 0.236324,-0.16454 0.0858,-0.0931 0.102868,-0.20154 0.0154,-0.10908 -0.04412,-0.23199 -0.0475,-0.0981 -0.106023,-0.16722 -0.05965,-0.0686 -0.118961,-0.11919 l 0.166894,-0.0808 q 0.06161,0.0467 0.11565,0.11523 0.0535,0.0674 0.104279,0.17223 z" />
      <path
         id="path1317"
         style="font-style:normal;font-variant:normal;font-weight:normal;font-stretch:normal;font-family:'Open Sans';-inkscape-font-specification:'Open Sans';stroke-width:0.240557;fill:#d5f6ec;fill-opacity:1"
         d="m 90.891204,157.40261 1.304049,-0.43022 0.05339,0.16182 -0.173812,0.089 0.0035,0.0107 q 0.08117,0.0181 0.148767,0.067 0.0676,0.0489 0.1169,0.12239 0.0501,0.0719 0.07993,0.1623 0.05103,0.15467 0.0356,0.27587 -0.01543,0.12119 -0.10247,0.20927 -0.08743,0.0869 -0.251629,0.14107 l -0.854295,0.28184 -0.06595,-0.19989 0.840017,-0.27713 q 0.163006,-0.0538 0.219577,-0.15424 0.05538,-0.10007 0.0055,-0.25118 -0.04789,-0.14516 -0.130884,-0.21277 -0.08339,-0.0688 -0.201843,-0.0719 -0.119646,-0.003 -0.274323,0.0483 l -0.686529,0.22649 z" />
      <path
         id="path1319"
         style="font-style:normal;font-variant:normal;font-weight:normal;font-stretch:normal;font-family:'Open Sans';-inkscape-font-specification:'Open Sans';stroke-width:0.240557;fill:#d5f6ec;fill-opacity:1"
         d="m 92.035289,156.24727 0.04404,0.20455 -1.905853,0.41031 -0.04404,-0.20455 z" />
      <path
         id="path1321"
         style="font-style:normal;font-variant:normal;font-weight:normal;font-stretch:normal;font-family:'Open Sans';-inkscape-font-specification:'Open Sans';stroke-width:0.240557;fill:#d5f6ec;fill-opacity:1"
         d="m 90.486068,155.37335 q -0.02755,-0.24402 0.06865,-0.37466 0.09621,-0.13065 0.33649,-0.15778 l 0.927521,-0.10472 0.01701,0.15065 -0.197191,0.0626 0.0011,0.01 q 0.08117,0.0488 0.139239,0.10532 0.05683,0.0566 0.09225,0.13585 0.03404,0.0781 0.04739,0.19638 0.01406,0.1245 -0.01855,0.22653 -0.03275,0.10079 -0.11482,0.16679 -0.08221,0.0648 -0.217915,0.0801 -0.204179,0.0231 -0.332012,-0.12642 -0.127833,-0.14948 -0.175183,-0.47953 l -0.03653,-0.23418 -0.08342,0.009 q -0.176789,0.02 -0.239179,0.10392 -0.06239,0.084 -0.04679,0.22215 0.01209,0.10707 0.05418,0.20067 0.04209,0.0936 0.09426,0.17596 l -0.1497,0.0812 q -0.05771,-0.0868 -0.104821,-0.20252 -0.04711,-0.11572 -0.06201,-0.24769 z m 0.683422,-0.35707 0.03219,0.20693 q 0.03878,0.2541 0.124038,0.35038 0.08526,0.0963 0.219722,0.0811 0.117029,-0.0132 0.165042,-0.0905 0.04801,-0.0773 0.0348,-0.19432 -0.02052,-0.18177 -0.134439,-0.28617 -0.113918,-0.1044 -0.315607,-0.0816 z" />
      <path
         id="path1323"
         style="font-style:normal;font-variant:normal;font-weight:normal;font-stretch:normal;font-family:'Open Sans';-inkscape-font-specification:'Open Sans';stroke-width:0.240557;fill:#d5f6ec;fill-opacity:1"
         d="m 90.460681,152.63657 q 0.01389,-0.22635 0.139745,-0.33412 0.124609,-0.10784 0.385975,-0.0918 l 0.897899,0.0551 -0.01258,0.2051 -0.887894,-0.0545 q -0.166324,-0.0102 -0.25331,0.0573 -0.08816,0.0661 -0.09683,0.20745 -0.0122,0.19884 0.09733,0.29594 0.109528,0.0971 0.333377,0.11083 l 0.76659,0.047 -0.01266,0.20634 -0.887894,-0.0545 q -0.111299,-0.007 -0.187077,0.0212 -0.0757,0.0267 -0.115878,0.0883 -0.04135,0.0602 -0.04726,0.15652 -0.0084,0.13631 0.04285,0.2223 0.05121,0.086 0.16021,0.13033 0.107824,0.043 0.269145,0.0529 l 0.725322,0.0445 -0.01273,0.2076 -1.370608,-0.0841 0.01028,-0.16757 0.195754,-0.0194 6.9e-4,-0.0113 q -0.06875,-0.0456 -0.113686,-0.11116 -0.04494,-0.0655 -0.06519,-0.14459 -0.02025,-0.0791 -0.01489,-0.16661 0.0096,-0.15632 0.07481,-0.25776 0.06405,-0.10277 0.185764,-0.143 l 6.91e-4,-0.0113 q -0.114661,-0.0748 -0.164975,-0.19589 -0.05156,-0.12116 -0.04297,-0.26122 z" />
      <path
         id="path1325"
         style="font-style:normal;font-variant:normal;font-weight:normal;font-stretch:normal;font-family:'Open Sans';-inkscape-font-specification:'Open Sans';stroke-width:0.240557;fill:#d5f6ec;fill-opacity:1"
         d="m 90.824003,149.20905 1.545667,1.18274 -0.06503,0.20414 -1.944984,0.0707 0.06769,-0.21249 1.279686,-0.0421 q 0.07723,-0.003 0.146582,-0.002 0.06974,-1.4e-4 0.133176,0.003 0.06344,0.003 0.122157,0.009 -0.05111,-0.0294 -0.104663,-0.0636 -0.05475,-0.0345 -0.111552,-0.075 -0.058,-0.0408 -0.120447,-0.0883 l -1.016739,-0.77098 z" />
      <path
         id="path1327"
         style="font-style:normal;font-variant:normal;font-weight:normal;font-stretch:normal;font-family:'Open Sans';-inkscape-font-specification:'Open Sans';stroke-width:0.240557;fill:#d5f6ec;fill-opacity:1"
         d="m 91.537323,148.74438 1.257727,0.55115 -0.08348,0.19049 -1.257728,-0.55114 z m -0.511233,-0.11322 q 0.02062,-0.047 0.06619,-0.0667 0.04492,-0.0214 0.109186,0.007 0.06312,0.0277 0.07901,0.0757 0.0164,0.0469 -0.0042,0.0939 -0.02162,0.0493 -0.06719,0.069 -0.04506,0.0186 -0.10818,-0.009 -0.06426,-0.0282 -0.08002,-0.0734 -0.0164,-0.0469 0.0052,-0.0962 z" />
      <path
         id="path1329"
         style="font-style:normal;font-variant:normal;font-weight:normal;font-stretch:normal;font-family:'Open Sans';-inkscape-font-specification:'Open Sans';stroke-width:0.240557;fill:#d5f6ec;fill-opacity:1"
         d="m 93.102811,148.35564 q 0.02419,-0.0453 0.04182,-0.097 0.01763,-0.0516 0.02251,-0.0874 l 0.142586,0.0761 q -0.0027,0.0397 -0.02347,0.10251 -0.02014,0.0617 -0.04905,0.11584 -0.05133,0.0962 -0.126372,0.15694 -0.07615,0.0602 -0.182207,0.0647 -0.105466,0.003 -0.248052,-0.0727 l -0.718458,-0.38347 -0.09203,0.17243 -0.08953,-0.0478 0.02078,-0.21188 -0.22413,-0.21336 0.05899,-0.11053 0.280752,0.14985 0.189373,-0.35481 0.143692,0.0767 -0.189374,0.35481 0.712931,0.38052 q 0.113848,0.0608 0.197947,0.0389 0.08469,-0.023 0.131295,-0.11029 z" />
      <path
         id="path1331"
         style="font-style:normal;font-variant:normal;font-weight:normal;font-stretch:normal;font-family:'Open Sans';-inkscape-font-specification:'Open Sans';stroke-width:0.240557;fill:#d5f6ec;fill-opacity:1"
         d="m 92.651565,146.71798 q 0.138988,-0.20245 0.297251,-0.23818 0.158263,-0.0357 0.357616,0.10114 l 0.769523,0.5283 -0.0858,0.12498 -0.190025,-0.0818 -0.0057,0.008 q 0.02936,0.0901 0.03625,0.17078 0.0059,0.08 -0.01925,0.16307 -0.02544,0.0813 -0.0928,0.17945 -0.07091,0.10329 -0.162376,0.15904 -0.09076,0.0547 -0.196002,0.0508 -0.104539,-0.005 -0.217127,-0.0822 -0.169398,-0.1163 -0.168109,-0.31298 0.0013,-0.19668 0.181652,-0.47711 l 0.125761,-0.2009 -0.0692,-0.0475 q -0.146674,-0.10069 -0.248807,-0.0781 -0.102133,0.0226 -0.180845,0.13724 -0.06098,0.0888 -0.09047,0.18712 -0.02949,0.0983 -0.04401,0.19471 l -0.166312,-0.0367 q 0.01322,-0.10338 0.05341,-0.22169 0.04019,-0.1183 0.115354,-0.22779 z m 0.750319,0.17773 -0.111193,0.17746 q -0.137106,0.21742 -0.135731,0.34602 0.0014,0.12861 0.112931,0.20519 0.09709,0.0667 0.183996,0.0397 0.0869,-0.027 0.153558,-0.12406 0.103532,-0.1508 0.08581,-0.3043 -0.01772,-0.1535 -0.18505,-0.26838 z" />
      <path
         id="path1333"
         style="font-style:normal;font-variant:normal;font-weight:normal;font-stretch:normal;font-family:'Open Sans';-inkscape-font-specification:'Open Sans';stroke-width:0.240557;fill:#d5f6ec;fill-opacity:1"
         d="m 93.719337,145.36729 q 0.117698,-0.13006 0.259365,-0.17083 0.141666,-0.0408 0.290268,0.004 0.147674,0.0441 0.286091,0.16934 l 0.09568,0.0866 -0.636411,0.70324 q 0.181814,0.15947 0.353826,0.15798 0.172012,-0.001 0.31409,-0.15848 0.08743,-0.0966 0.137039,-0.1869 0.0496,-0.0903 0.08753,-0.20129 l 0.13563,0.12274 q -0.03541,0.10821 -0.08855,0.19868 -0.05231,0.0895 -0.145622,0.19265 -0.132831,0.14678 -0.291488,0.2026 -0.158746,0.054 -0.329513,0.009 -0.170767,-0.0447 -0.338912,-0.19687 -0.164428,-0.14881 -0.234664,-0.31207 -0.07032,-0.16503 -0.04456,-0.32421 0.02661,-0.1601 0.150191,-0.29666 z m 0.124659,0.11619 q -0.111813,0.12355 -0.09741,0.27008 0.0144,0.14653 0.146715,0.29162 l 0.487607,-0.53881 q -0.09188,-0.0815 -0.185846,-0.1158 -0.09405,-0.0361 -0.182583,-0.0148 -0.08946,0.0204 -0.168485,0.10775 z" />
      <path
         id="path1335"
         style="font-style:normal;font-variant:normal;font-weight:normal;font-stretch:normal;font-family:'Open Sans';-inkscape-font-specification:'Open Sans';stroke-width:0.240557;fill:#d5f6ec;fill-opacity:1"
         d="m 97.201756,142.3539 q -0.133543,0.0718 -0.21569,0.17564 -0.08164,0.10218 -0.109834,0.2297 -0.02769,0.12582 -0.0016,0.26968 0.0261,0.14385 0.108531,0.29726 0.109121,0.20307 0.252684,0.31937 0.144074,0.11459 0.313777,0.12866 0.170807,0.0135 0.360636,-0.0885 0.108159,-0.0581 0.193585,-0.12678 0.08594,-0.0703 0.16161,-0.14658 l 0.08777,0.16335 q -0.0705,0.0805 -0.15932,0.14819 -0.08823,0.0687 -0.221769,0.1405 -0.246116,0.13225 -0.466226,0.11967 -0.219599,-0.0143 -0.402599,-0.15631 -0.181896,-0.14264 -0.318297,-0.39648 -0.09845,-0.1832 -0.128926,-0.36169 -0.02997,-0.18017 0.009,-0.34332 0.04002,-0.16374 0.151475,-0.30044 0.111962,-0.13839 0.29848,-0.23861 0.122507,-0.0658 0.249231,-0.10263 0.126724,-0.0368 0.242642,-0.0408 l 0.01035,0.19925 q -0.09623,0.006 -0.202582,0.0306 -0.105836,0.0227 -0.212891,0.0803 z" />
      <path
         id="path1337"
         style="font-style:normal;font-variant:normal;font-weight:normal;font-stretch:normal;font-family:'Open Sans';-inkscape-font-specification:'Open Sans';stroke-width:0.240557;fill:#d5f6ec;fill-opacity:1"
         d="m 99.406877,141.7619 0.462697,1.29288 -0.16043,0.0574 -0.09333,-0.17153 -0.01062,0.004 q -0.01604,0.0816 -0.06328,0.15039 -0.04724,0.0688 -0.11943,0.11993 -0.07059,0.0519 -0.160245,0.084 -0.153353,0.0549 -0.274892,0.0425 -0.121539,-0.0124 -0.211774,-0.0972 -0.08906,-0.0852 -0.147314,-0.24802 l -0.303117,-0.84698 0.198179,-0.0709 0.298051,0.83282 q 0.05784,0.16161 0.159682,0.21565 0.101423,0.0529 0.251237,-7.5e-4 0.143916,-0.0515 0.20943,-0.13617 0.06669,-0.0851 0.06687,-0.20358 -2.47e-4,-0.11967 -0.05513,-0.27303 l -0.243591,-0.68065 z" />
      <path
         id="path1339"
         style="font-style:normal;font-variant:normal;font-weight:normal;font-stretch:normal;font-family:'Open Sans';-inkscape-font-specification:'Open Sans';stroke-width:0.240557;fill:#d5f6ec;fill-opacity:1"
         d="m 100.69111,141.42185 q 0.0404,-0.009 0.0855,-0.0139 0.0449,-0.006 0.0807,-0.006 l 0.0163,0.19405 q -0.0349,-0.001 -0.0764,0.003 -0.0414,0.004 -0.0769,0.012 -0.0807,0.018 -0.1455,0.0671 -0.0638,0.0476 -0.10402,0.12074 -0.0405,0.0719 -0.0519,0.16433 -0.0118,0.0912 0.0114,0.19514 l 0.16026,0.71907 -0.20423,0.0455 -0.29871,-1.3403 0.16876,-0.0376 0.0771,0.24212 0.009,-0.002 q 0.025,-0.0839 0.07,-0.15809 0.0448,-0.0755 0.11367,-0.12931 0.0701,-0.0541 0.16547,-0.0754 z" />
      <path
         id="path1341"
         style="font-style:normal;font-variant:normal;font-weight:normal;font-stretch:normal;font-family:'Open Sans';-inkscape-font-specification:'Open Sans';stroke-width:0.240557;fill:#d5f6ec;fill-opacity:1"
         d="m 101.95846,141.23832 q 0.041,-0.005 0.0864,-0.005 0.0452,-0.002 0.081,0.002 l -0.003,0.1947 q -0.0346,-0.005 -0.0763,-0.005 -0.0417,-8e-5 -0.0777,0.004 -0.0821,0.01 -0.15151,0.0521 -0.0683,0.0409 -0.11562,0.10968 -0.0475,0.0675 -0.0682,0.15828 -0.0209,0.0896 -0.008,0.1953 l 0.0872,0.73153 -0.20776,0.0248 -0.16259,-1.36352 0.17168,-0.0205 0.0524,0.24864 0.009,-0.001 q 0.0333,-0.0809 0.0855,-0.15026 0.0522,-0.0706 0.12608,-0.11724 0.0752,-0.0468 0.17221,-0.0584 z" />
      <path
         id="path1343"
         style="font-style:normal;font-variant:normal;font-weight:normal;font-stretch:normal;font-family:'Open Sans';-inkscape-font-specification:'Open Sans';stroke-width:0.240557;fill:#d5f6ec;fill-opacity:1"
         d="m 102.79691,141.21574 0.0502,1.37227 -0.20784,0.008 -0.0502,-1.37227 z m -0.1202,-0.50963 q 0.0513,-0.002 0.0889,0.0306 0.0387,0.0312 0.0413,0.10129 0.003,0.0689 -0.0338,0.10405 -0.0351,0.0351 -0.0864,0.037 -0.0538,0.002 -0.0914,-0.0305 -0.0363,-0.0325 -0.0388,-0.10138 -0.003,-0.0701 0.0313,-0.10396 0.0351,-0.0351 0.0889,-0.0371 z" />
      <path
         id="path1345"
         style="font-style:normal;font-variant:normal;font-weight:normal;font-stretch:normal;font-family:'Open Sans';-inkscape-font-specification:'Open Sans';stroke-width:0.240557;fill:#d5f6ec;fill-opacity:1"
         d="m 103.92673,142.63323 q -0.18517,-0.01 -0.32253,-0.0935 -0.13736,-0.0838 -0.20794,-0.24432 -0.0706,-0.16056 -0.058,-0.39828 0.0131,-0.24898 0.10401,-0.40227 0.0922,-0.15449 0.24261,-0.22309 0.15041,-0.0686 0.33683,-0.0588 0.1026,0.005 0.19657,0.0317 0.0953,0.0251 0.15494,0.0596 l -0.0717,0.17062 q -0.0612,-0.0283 -0.14276,-0.0527 -0.0803,-0.0243 -0.15159,-0.0281 -0.14263,-0.008 -0.24095,0.0488 -0.0971,0.0564 -0.15088,0.17272 -0.0526,0.11642 -0.0617,0.29033 -0.009,0.16641 0.0301,0.28639 0.0401,0.12005 0.12688,0.18736 0.0881,0.0661 0.22448,0.0733 0.10885,0.006 0.19762,-0.0122 0.0888,-0.0192 0.1618,-0.0467 l -0.01,0.18518 q -0.0707,0.0314 -0.15673,0.0457 -0.0848,0.0144 -0.20118,0.008 z" />
      <path
         id="path1347"
         style="font-style:normal;font-variant:normal;font-weight:normal;font-stretch:normal;font-family:'Open Sans';-inkscape-font-specification:'Open Sans';stroke-width:0.240557;fill:#d5f6ec;fill-opacity:1"
         d="m 106.06262,141.5291 -0.25093,1.35006 -0.16752,-0.0311 0.006,-0.19519 -0.0111,-0.002 q -0.0549,0.0624 -0.13037,0.0981 -0.0754,0.0357 -0.16356,0.0435 -0.0871,0.009 -0.18073,-0.008 -0.16014,-0.0298 -0.25892,-0.10165 -0.0988,-0.0719 -0.13407,-0.19059 -0.034,-0.11847 -0.002,-0.28846 l 0.16438,-0.88444 0.20694,0.0385 -0.16163,0.86965 q -0.0314,0.16876 0.0294,0.26672 0.061,0.0967 0.21748,0.1258 0.15028,0.0279 0.2495,-0.0122 0.10045,-0.04 0.16025,-0.14225 0.06,-0.10354 0.0898,-0.26367 l 0.13211,-0.71076 z" />
      <path
         id="path1349"
         style="font-style:normal;font-variant:normal;font-weight:normal;font-stretch:normal;font-family:'Open Sans';-inkscape-font-specification:'Open Sans';stroke-width:0.240557;fill:#d5f6ec;fill-opacity:1"
         d="m 106.52429,143.088 -0.20048,-0.0599 0.55797,-1.86797 0.20048,0.0599 z" />
      <path
         id="path1351"
         style="font-style:normal;font-variant:normal;font-weight:normal;font-stretch:normal;font-family:'Open Sans';-inkscape-font-specification:'Open Sans';stroke-width:0.240557;fill:#d5f6ec;fill-opacity:1"
         d="m 108.03677,142.15142 q 0.22709,0.0935 0.2952,0.24072 0.0681,0.14726 -0.0239,0.37087 l -0.35525,0.86317 -0.14019,-0.0577 0.0402,-0.20295 -0.009,-0.004 q -0.0819,0.0476 -0.15939,0.0713 -0.077,0.0225 -0.16348,0.0154 -0.0849,-0.008 -0.19492,-0.0531 -0.11586,-0.0477 -0.18954,-0.12543 -0.0725,-0.0773 -0.0908,-0.18099 -0.0171,-0.10324 0.0348,-0.22953 0.0782,-0.19001 0.27079,-0.22998 0.19258,-0.04 0.50459,0.0776 l 0.22279,0.0808 0.032,-0.0776 q 0.0677,-0.16452 0.0242,-0.25965 -0.0435,-0.0951 -0.1721,-0.14806 -0.0996,-0.041 -0.20194,-0.0492 -0.10229,-0.008 -0.19961,-0.002 l 10e-4,-0.1703 q 0.10385,-0.009 0.22796,0.006 0.1241,0.0145 0.24691,0.065 z m -0.0165,0.77091 -0.19682,-0.0715 q -0.24133,-0.0885 -0.36679,-0.0602 -0.12546,0.0283 -0.17696,0.15343 -0.0448,0.10891 -2.4e-4,0.18823 0.0446,0.0793 0.15349,0.12414 0.16916,0.0696 0.31554,0.0201 0.14637,-0.0495 0.22362,-0.23719 z" />
      <path
         id="path1353"
         style="font-style:normal;font-variant:normal;font-weight:normal;font-stretch:normal;font-family:'Open Sans';-inkscape-font-specification:'Open Sans';stroke-width:0.240557;fill:#d5f6ec;fill-opacity:1"
         d="m 110.44752,143.45283 q 0.19135,0.1217 0.22474,0.28399 0.0341,0.16124 -0.10645,0.3822 l -0.48275,0.75908 -0.17338,-0.11026 0.47736,-0.75063 q 0.0894,-0.14061 0.0725,-0.24939 -0.0152,-0.10915 -0.13468,-0.18513 -0.1681,-0.1069 -0.30607,-0.0581 -0.13798,0.0489 -0.25833,0.2381 l -0.41215,0.64808 -0.17444,-0.11094 0.47737,-0.75063 q 0.0598,-0.0941 0.072,-0.17395 0.0132,-0.0792 -0.0212,-0.14413 -0.0327,-0.0653 -0.1141,-0.11711 -0.11524,-0.0733 -0.21527,-0.0701 -0.10003,0.003 -0.19159,0.0771 -0.0898,0.0735 -0.17656,0.20992 l -0.38996,0.61319 -0.1755,-0.11161 0.7369,-1.15872 0.14166,0.0901 -0.0778,0.18067 0.01,0.006 q 0.0732,-0.0381 0.1523,-0.0457 0.0791,-0.008 0.15808,0.0129 0.079,0.0206 0.153,0.0676 0.13215,0.084 0.18936,0.19021 0.0589,0.10578 0.0352,0.23177 l 0.01,0.006 q 0.12096,-0.0641 0.25127,-0.0496 0.13098,0.0135 0.24939,0.0888 z" />
      <path
         id="path1355"
         style="font-style:normal;font-variant:normal;font-weight:normal;font-stretch:normal;font-family:'Open Sans';-inkscape-font-specification:'Open Sans';stroke-width:0.240557;fill:#d5f6ec;fill-opacity:1"
         d="m 113.27037,145.42685 -1.78194,0.78274 -0.14738,-0.15549 0.8769,-1.73753 0.15343,0.16186 -0.5809,1.14102 q -0.0346,0.0691 -0.069,0.12932 -0.0335,0.0611 -0.0669,0.11519 -0.0333,0.0541 -0.0666,0.1028 0.0504,-0.0306 0.10621,-0.061 0.0567,-0.0313 0.11952,-0.0615 0.0637,-0.0311 0.1355,-0.0628 l 1.166,-0.51828 z" />
      <path
         id="path1357"
         style="font-style:normal;font-variant:normal;font-weight:normal;font-stretch:normal;font-family:'Open Sans';-inkscape-font-specification:'Open Sans';stroke-width:0.240557;fill:#d5f6ec;fill-opacity:1"
         d="m 113.33263,146.27382 -1.0887,0.83687 -0.12675,-0.1649 1.0887,-0.83687 z m 0.34543,-0.39353 q 0.0313,0.0407 0.0266,0.0901 -0.003,0.0497 -0.0585,0.0924 -0.0546,0.042 -0.10436,0.0328 -0.049,-0.008 -0.0803,-0.0489 -0.0328,-0.0427 -0.0282,-0.0921 0.005,-0.0484 0.0601,-0.0904 0.0556,-0.0428 0.10283,-0.0348 0.049,0.008 0.0818,0.0509 z" />
      <path
         id="path1359"
         style="font-style:normal;font-variant:normal;font-weight:normal;font-stretch:normal;font-family:'Open Sans';-inkscape-font-specification:'Open Sans';stroke-width:0.240557;fill:#d5f6ec;fill-opacity:1"
         d="m 112.91973,147.83277 q 0.0281,0.043 0.0649,0.0833 0.0368,0.0403 0.0658,0.0618 l -0.13532,0.0884 q -0.0335,-0.0215 -0.0786,-0.0699 -0.0444,-0.0473 -0.078,-0.0987 -0.0596,-0.0913 -0.0768,-0.18629 -0.0161,-0.0957 0.031,-0.19084 0.0478,-0.0941 0.18311,-0.18246 l 0.68183,-0.44536 -0.10689,-0.16363 0.085,-0.0555 0.17575,0.12015 0.29488,-0.0938 0.0685,0.1049 -0.26643,0.17403 0.21993,0.33672 -0.13636,0.0891 -0.21994,-0.33672 -0.67658,0.44193 q -0.10804,0.0706 -0.12934,0.15482 -0.0206,0.0853 0.0335,0.16816 z" />
      <path
         id="path1361"
         style="font-style:normal;font-variant:normal;font-weight:normal;font-stretch:normal;font-family:'Open Sans';-inkscape-font-specification:'Open Sans';stroke-width:0.240557;fill:#d5f6ec;fill-opacity:1"
         d="m 114.57265,148.2252 q 0.11058,0.21926 0.0657,0.37518 -0.0448,0.15593 -0.26075,0.26482 l -0.83342,0.42032 -0.0683,-0.13536 0.16317,-0.1272 -0.005,-0.009 q -0.0931,-0.0176 -0.16715,-0.0504 -0.073,-0.0334 -0.13369,-0.0954 -0.059,-0.0614 -0.11264,-0.1677 -0.0564,-0.11187 -0.0613,-0.21888 -0.004,-0.10588 0.0497,-0.19628 0.0546,-0.0893 0.17654,-0.15078 0.18347,-0.0925 0.35526,0.003 0.17179,0.0958 0.33081,0.38883 l 0.11558,0.20692 0.075,-0.0378 q 0.15885,-0.0801 0.1882,-0.18052 0.0293,-0.10039 -0.0333,-0.22457 -0.0485,-0.0962 -0.12049,-0.16936 -0.072,-0.0732 -0.14951,-0.13228 l 0.11218,-0.12814 q 0.0843,0.0614 0.16863,0.15351 0.0844,0.0922 0.14417,0.21074 z m -0.51687,0.57219 -0.10205,-0.18287 q -0.12461,-0.22481 -0.23801,-0.2855 -0.11339,-0.0607 -0.23421,2.5e-4 -0.10516,0.053 -0.12334,0.14219 -0.0182,0.0892 0.0349,0.19431 0.0824,0.16333 0.22545,0.22167 0.14308,0.0583 0.32431,-0.0331 z" />
      <path
         id="path1363"
         style="font-style:normal;font-variant:normal;font-weight:normal;font-stretch:normal;font-family:'Open Sans';-inkscape-font-specification:'Open Sans';stroke-width:0.240557;fill:#d5f6ec;fill-opacity:1"
         d="m 115.24261,149.81333 q 0.0571,0.16584 0.0245,0.3096 -0.0326,0.14376 -0.14367,0.25226 -0.10985,0.10808 -0.28635,0.1689 l -0.12201,0.042 -0.30896,-0.89671 q -0.2274,0.0823 -0.30908,0.23371 -0.0817,0.15139 -0.0127,0.35158 0.0424,0.12319 0.0976,0.2102 0.0552,0.087 0.13409,0.17378 l -0.17295,0.0596 q -0.0777,-0.0832 -0.13131,-0.17341 -0.0532,-0.089 -0.0985,-0.2205 -0.0645,-0.18716 -0.0368,-0.35306 0.0292,-0.16512 0.15078,-0.29314 0.12155,-0.12801 0.33595,-0.20188 0.20967,-0.0722 0.38656,-0.055 0.17848,0.018 0.30548,0.11737 0.12741,0.10055 0.1874,0.27468 z m -0.16191,0.0531 q -0.0543,-0.15755 -0.18959,-0.21562 -0.1353,-0.0581 -0.32621,-0.0122 l 0.23672,0.68705 q 0.11568,-0.0412 0.19109,-0.10692 0.077,-0.065 0.10109,-0.15277 0.0253,-0.0882 -0.0131,-0.19957 z" />
    </g>
  </g>
</svg>
