<?xml version="1.0" encoding="UTF-8" standalone="no"?>
<svg
   xmlns:dc="http://purl.org/dc/elements/1.1/"
   xmlns:cc="http://creativecommons.org/ns#"
   xmlns:rdf="http://www.w3.org/1999/02/22-rdf-syntax-ns#"
   xmlns:svg="http://www.w3.org/2000/svg"
   xmlns="http://www.w3.org/2000/svg"
   id="svg257"
   version="1.1"
   viewBox="0 0 7.9374996 7.9374996"
   height="30"
   width="30">
  <defs
     id="defs251" />
  <metadata
     id="metadata254">
    <rdf:RDF>
      <cc:Work
         rdf:about="">
        <dc:format>image/svg+xml</dc:format>
        <dc:type
           rdf:resource="http://purl.org/dc/dcmitype/StillImage" />
        <dc:title></dc:title>
      </cc:Work>
    </rdf:RDF>
  </metadata>
  <g
     id="layer1">
    <path
       transform="matrix(1.022992,0.15657751,-0.15657751,1.022992,-176.35666,-128.57673)"
       d="m 193.98468,103.14854 c -0.18617,0.15159 -1.1878,-0.86139 -1.40686,-0.76315 -0.21906,0.0982 -0.12877,1.51996 -0.36579,1.55816 -0.23702,0.0382 -0.59798,-1.33989 -0.83681,-1.36434 -0.23882,-0.0245 -0.8715,1.25193 -1.09586,1.1665 -0.22436,-0.0854 0.15209,-1.45936 -0.0425,-1.59995 -0.19461,-0.14058 -1.38071,0.64846 -1.5323,0.46229 -0.15159,-0.18616 0.86139,-1.1878 0.76315,-1.40686 -0.0982,-0.21905 -1.51996,-0.12877 -1.55816,-0.36579 -0.0382,-0.23702 1.33989,-0.59797 1.36434,-0.8368 0.0245,-0.23883 -1.25193,-0.8715 -1.1665,-1.095864 0.0854,-0.224364 1.45936,0.152086 1.59995,-0.04252 0.14058,-0.194609 -0.64846,-1.380708 -0.46229,-1.532299 0.18616,-0.151591 1.1878,0.861393 1.40686,0.76315 0.21905,-0.09824 0.12877,-1.519956 0.36579,-1.558155 0.23702,-0.0382 0.59797,1.33989 0.8368,1.364337 0.23883,0.02445 0.8715,-1.251933 1.09587,-1.166505 0.22436,0.08543 -0.15209,1.459365 0.0425,1.599951 0.19461,0.140587 1.38071,-0.648456 1.5323,-0.462291 0.15159,0.186165 -0.8614,1.187804 -0.76315,1.40686 0.0982,0.219056 1.51995,0.128774 1.55815,0.365793 0.0382,0.237019 -1.33989,0.597976 -1.36434,0.836806 -0.0244,0.23883 1.25194,0.8715 1.16651,1.09586 -0.0854,0.22436 -1.45937,-0.15209 -1.59995,0.0425 -0.14059,0.19461 0.64845,1.38071 0.46229,1.5323 z"
       id="path1074"
       style="opacity:1;fill:#f6c36d;fill-opacity:1;stroke:none;stroke-width:0.164891" />
  </g>
</svg>
